<?xml version="1.0" ?><!DOCTYPE svg  PUBLIC '-//W3C//DTD SVG 1.1//EN'  'http://www.w3.org/Graphics/SVG/1.1/DTD/svg11.dtd'><svg height="8.4666mm" style="shape-rendering:geometricPrecision; text-rendering:geometricPrecision; image-rendering:optimizeQuality; fill-rule:evenodd; clip-rule:evenodd" version="1.1" viewBox="0 0 846.66 846.66" width="8.4666mm" xml:space="preserve" xmlns="http://www.w3.org/2000/svg" xmlns:xlink="http://www.w3.org/1999/xlink"><defs><style type="text/css">
   <![CDATA[
    .fil0 {fill-rule:nonzero}
   ]]>
  </style></defs><g id="Layer_x0020_1"><path class="fil0" d="M29 17.54l642.61 0c11.46,0 20.76,9.29 20.76,20.76l0 107.99c83,10.41 146.05,81.67 146.05,165.51l0 496.56c0,11.47 -9.3,20.76 -20.76,20.76l-788.66 0c-11.46,0 -20.75,-9.29 -20.75,-20.76l0 -770.06c0,-11.47 9.29,-20.76 20.75,-20.76zm20.76 695.95l601.09 0 0 -654.43 -601.09 0 0 654.43zm601.09 41.51l-601.09 0 0 32.6 601.09 0 0 -32.6zm-248.65 -316.58c-27.3,0 -27.3,-41.51 0,-41.51l164 0c27.31,0 27.31,41.51 0,41.51l-164 0zm0 137.02c-27.3,0 -27.3,-41.52 0,-41.52l164 0c27.31,0 27.31,41.52 0,41.52l-164 0zm0 -68.51c-27.3,0 -27.3,-41.52 0,-41.52l164 0c27.31,0 27.31,41.52 0,41.52l-164 0zm-267.79 -129.74l176.46 0c11.46,0 20.75,9.29 20.75,20.75l0 176.46c0,11.46 -9.29,20.76 -20.75,20.76l-176.46 0c-11.46,0 -20.76,-9.3 -20.76,-20.76l0 -176.46c0,-11.46 9.3,-20.75 20.76,-20.75zm155.7 41.51l-134.94 0 0 134.94 134.94 0 0 -134.94zm402.26 -230.45l0 599.35 104.53 0 0 -475.8c0,-60.96 -44.61,-113.43 -104.53,-123.55zm-531.66 -77.77l379.19 0c11.46,0 20.76,9.29 20.76,20.76l0 167.29c0,11.46 -9.3,20.75 -20.76,20.75l-379.19 0c-11.46,0 -20.75,-9.29 -20.75,-20.75l0 -167.29c0,-11.47 9.29,-20.76 20.75,-20.76zm358.43 41.51l-337.67 0 0 125.78 337.67 0 0 -125.78z"/></g></svg>